<?xml version="1.0" standalone="no"?>
<!DOCTYPE svg PUBLIC "-//W3C//DTD SVG 20010904//EN"
 "http://www.w3.org/TR/2001/REC-SVG-20010904/DTD/svg10.dtd">
<svg version="1.0" xmlns="http://www.w3.org/2000/svg"
 width="4096.000000pt" height="4096.000000pt" viewBox="0 0 4096.000000 4096.000000"
 preserveAspectRatio="xMidYMid meet">
<metadata>
Created by potrace 1.14, written by Peter Selinger 2001-2017
</metadata>
<g transform="translate(0.000000,4096.000000) scale(0.100000,-0.100000)"
fill="#000000" stroke="none">
<path d="M10669 35836 c-2 -2 -40 -6 -85 -10 -116 -8 -271 -32 -409 -62 -279
-61 -564 -168 -830 -312 -189 -103 -325 -195 -502 -339 -145 -118 -345 -319
-438 -439 -16 -21 -41 -52 -56 -69 -34 -40 -86 -114 -146 -205 -187 -284 -329
-603 -418 -940 -9 -33 -27 -106 -31 -125 -2 -11 -6 -31 -9 -45 -2 -14 -7 -38
-10 -55 -3 -16 -7 -41 -10 -55 -3 -14 -8 -47 -11 -75 -4 -27 -8 -52 -9 -55 -2
-3 -7 -48 -12 -100 -10 -123 -11 -25464 0 -25590 5 -52 10 -106 12 -120 2 -14
6 -45 9 -70 24 -185 62 -369 107 -524 12 -38 22 -76 24 -85 2 -9 25 -77 50
-151 43 -122 58 -161 100 -255 316 -714 795 -1277 1458 -1714 43 -28 80 -51
82 -51 2 0 37 -20 78 -44 41 -24 137 -74 213 -111 76 -37 147 -72 158 -77 27
-14 229 -91 316 -121 129 -44 364 -106 465 -123 17 -3 53 -9 80 -14 85 -16
145 -25 241 -35 33 -4 74 -9 90 -12 16 -3 388 -7 827 -10 l797 -5 0 13441 0
13441 -997 1 c-549 0 -1027 2 -1063 5 -62 4 -80 6 -180 20 -70 9 -229 51 -326
85 -100 35 -289 124 -347 163 -21 14 -40 26 -43 26 -2 0 -39 26 -82 57 -309
227 -532 513 -670 863 -28 72 -70 201 -78 245 -2 11 -6 31 -9 45 -8 34 -24
125 -32 180 -9 64 -9 383 0 460 13 107 47 257 83 369 43 132 47 141 115 277
128 252 310 473 529 642 30 23 60 45 65 50 84 65 295 178 419 224 150 56 182
64 441 114 22 5 4409 9 9748 11 9422 3 9707 3 9698 -15 -5 -10 -17 -24 -25
-32 -9 -7 -16 -16 -16 -21 0 -5 -11 -26 -23 -47 -56 -88 -257 -474 -257 -493
0 -4 -11 -32 -25 -61 -59 -127 -159 -411 -191 -543 -39 -162 -62 -275 -71
-350 -2 -22 -6 -51 -9 -65 -9 -45 -12 -403 -3 -475 14 -124 19 -159 29 -210 5
-27 11 -61 14 -75 36 -215 174 -628 306 -915 44 -95 146 -303 167 -340 10 -16
37 -63 60 -103 24 -40 43 -77 43 -82 0 -7 -2868 -10 -7995 -10 l-7995 0 0
-13440 0 -13440 9600 0 9600 0 0 13440 0 13440 -357 1 c-476 1 -558 7 -748 56
-33 8 -67 16 -75 18 -58 13 -244 87 -337 136 -564 291 -940 825 -1028 1459
-10 73 -14 380 -5 445 4 33 11 83 15 110 29 211 139 504 265 705 126 202 303
395 480 525 311 229 665 360 1027 380 43 2 232 4 421 5 l342 0 0 640 0 640
-11303 0 c-6217 0 -11306 -2 -11308 -4z"/>
</g>
</svg>
