<?xml version="1.0" standalone="no"?>
<!DOCTYPE svg PUBLIC "-//W3C//DTD SVG 20010904//EN"
 "http://www.w3.org/TR/2001/REC-SVG-20010904/DTD/svg10.dtd">
<svg version="1.0" xmlns="http://www.w3.org/2000/svg"
 width="4096.000000pt" height="4096.000000pt" viewBox="0 0 4096.000000 4096.000000"
 preserveAspectRatio="xMidYMid meet">
<metadata>
Created by potrace 1.14, written by Peter Selinger 2001-2017
</metadata>
<g transform="translate(0.000000,4096.000000) scale(0.100000,-0.100000)"
fill="#000000" stroke="none">
<path d="M5017 37544 c-1 -1 -38 -5 -82 -9 -227 -20 -490 -109 -699 -237 -55
-34 -103 -64 -106 -67 -3 -3 -30 -25 -61 -48 -167 -124 -352 -345 -457 -545
-65 -124 -135 -311 -158 -423 -17 -83 -22 -116 -31 -190 -10 -77 -10 -31022 0
-31095 33 -254 108 -475 229 -678 282 -469 752 -771 1293 -829 94 -10 30991
-10 31080 1 389 44 740 212 1015 485 138 138 266 318 339 476 13 28 29 61 36
75 19 37 72 208 89 287 17 78 24 121 35 216 9 86 7 31015 -3 31077 -29 188
-62 312 -119 452 -193 464 -577 818 -1052 971 -70 22 -112 34 -150 42 -32 7
-126 25 -165 31 -38 6 -31026 14 -31033 8z m29114 -3434 c5 -141 3 -27259 -2
-27270 -6 -13 -1532 -15 -13648 -14 -7502 0 -13644 4 -13648 7 -3 4 -7 6146
-7 13648 -1 10465 2 13642 11 13647 6 4 6150 7 13652 7 l13641 0 1 -25z"/>
<path d="M8542 32421 c-5 -4 -9 -718 -9 -1707 l0 -1701 1706 1 1706 1 0 1705
0 1705 -1697 1 c-933 0 -1701 -2 -1706 -5z"/>
<path d="M15360 30720 l0 -1707 1704 0 c1548 0 1705 2 1708 16 3 13 2 3374 -1
3392 -1 3 -768 6 -1706 6 l-1705 0 0 -1707z"/>
<path d="M22186 30721 l0 -1706 1705 0 1704 0 3 1706 2 1706 -1707 0 -1708 0
1 -1706z"/>
<path d="M29017 32416 c-2 -6 -4 -774 -3 -1706 l1 -1695 1705 0 1705 0 1 1706
1 1706 -1703 0 c-1215 0 -1704 -3 -1707 -11z"/>
<path d="M16855 27234 c-470 -66 -865 -294 -1149 -663 -57 -75 -137 -202 -168
-271 -74 -160 -94 -214 -127 -345 -20 -80 -25 -108 -39 -200 -10 -67 -9
-10512 1 -10598 19 -175 79 -372 166 -545 76 -155 75 -152 83 -152 5 0 8 -5 8
-11 0 -19 137 -194 212 -271 267 -272 557 -420 953 -483 64 -11 334 -13 405
-4 218 27 385 76 577 170 139 68 201 111 665 460 186 140 348 262 360 271 45
33 949 712 1563 1173 345 259 639 479 655 490 42 30 321 238 334 250 6 6 76
59 156 118 80 60 435 326 790 592 355 266 683 512 730 547 47 35 87 65 90 68
3 3 39 30 80 60 41 30 82 60 90 67 8 7 256 193 550 413 294 221 542 406 550
413 9 7 130 98 270 203 147 111 294 230 347 283 95 93 208 237 258 326 16 28
33 57 40 65 10 14 51 102 88 190 32 75 84 256 93 323 2 15 6 39 9 55 23 124
24 398 0 505 -2 12 -6 36 -9 52 -11 74 -56 236 -89 320 -24 60 -111 231 -145
285 -90 141 -231 302 -347 395 -28 22 -52 43 -55 46 -3 3 -185 140 -405 305
-220 164 -402 301 -405 304 -3 3 -651 489 -1440 1080 -789 591 -1437 1077
-1440 1080 -3 3 -579 435 -1280 960 -701 525 -1281 960 -1290 967 -50 40 -592
443 -626 465 -139 90 -412 198 -564 222 -19 3 -44 7 -55 10 -122 23 -357 28
-490 10z m2284 -5321 c196 -148 358 -270 361 -273 3 -3 39 -30 80 -60 41 -30
77 -57 80 -60 12 -13 1324 -997 1351 -1014 l31 -19 -24 -22 c-12 -13 -120 -95
-238 -184 -118 -88 -219 -164 -225 -168 -5 -4 -154 -116 -330 -249 -176 -132
-573 -430 -881 -662 -309 -232 -564 -422 -566 -422 -2 0 -4 765 -4 1700 0 935
2 1700 4 1700 2 0 165 -120 361 -267z"/>
<path d="M8536 11941 c-2 -3 -3 -771 -2 -1706 l1 -1700 1695 -1 c932 -1 1700
1 1706 3 8 3 11 492 11 1707 l0 1703 -1704 0 c-937 0 -1705 -3 -1707 -6z"/>
<path d="M15364 11936 c-2 -6 -3 -774 -2 -1706 l3 -1695 1703 -1 1702 -1 1 26
c4 110 3 3375 -1 3380 -8 13 -3401 10 -3406 -3z"/>
<path d="M22186 10241 l0 -1706 1705 0 1704 0 3 1706 2 1706 -1707 0 -1708 0
1 -1706z"/>
<path d="M29017 11936 c-2 -6 -4 -774 -3 -1706 l1 -1695 1705 0 1705 0 1 1706
1 1706 -1703 0 c-1215 0 -1704 -3 -1707 -11z"/>
</g>
</svg>
