<?xml version="1.0" standalone="no"?>
<!DOCTYPE svg PUBLIC "-//W3C//DTD SVG 20010904//EN"
 "http://www.w3.org/TR/2001/REC-SVG-20010904/DTD/svg10.dtd">
<svg version="1.0" xmlns="http://www.w3.org/2000/svg"
 width="4096.000000pt" height="4096.000000pt" viewBox="0 0 4096.000000 4096.000000"
 preserveAspectRatio="xMidYMid meet">
<metadata>
Created by potrace 1.14, written by Peter Selinger 2001-2017
</metadata>
<g transform="translate(0.000000,4096.000000) scale(0.100000,-0.100000)"
fill="#000000" stroke="none">
<path d="M19938 40955 c-2 -2 -97 -6 -213 -10 -115 -4 -235 -9 -265 -10 -113
-5 -297 -16 -345 -20 -27 -3 -90 -7 -140 -10 -49 -3 -110 -8 -135 -10 -25 -2
-81 -7 -125 -10 -44 -4 -93 -8 -110 -9 -88 -9 -165 -17 -205 -21 -77 -8 -153
-16 -190 -20 -19 -2 -57 -7 -85 -10 -27 -3 -65 -7 -84 -10 -19 -2 -62 -7 -95
-10 -59 -6 -108 -12 -150 -21 -11 -2 -43 -7 -71 -9 -27 -3 -63 -7 -80 -10 -16
-3 -48 -7 -70 -10 -22 -3 -67 -10 -100 -15 -33 -5 -80 -12 -105 -15 -25 -3
-83 -12 -130 -20 -47 -8 -101 -16 -120 -19 -19 -3 -62 -10 -95 -16 -33 -6 -73
-13 -90 -16 -44 -8 -456 -84 -485 -90 -14 -3 -67 -14 -119 -25 -51 -12 -103
-22 -115 -25 -11 -2 -32 -6 -46 -9 -14 -3 -34 -7 -45 -9 -91 -18 -436 -100
-645 -152 -140 -36 -265 -67 -277 -70 -12 -2 -35 -9 -50 -15 -16 -6 -28 -9
-28 -8 0 1 -27 -6 -60 -16 -33 -9 -67 -18 -75 -20 -19 -4 -141 -39 -200 -57
-25 -8 -47 -15 -50 -15 -35 -5 -516 -155 -770 -240 -398 -133 -994 -356 -1295
-483 -27 -12 -59 -25 -70 -30 -11 -4 -83 -35 -161 -69 -77 -33 -149 -63 -160
-67 -10 -4 -57 -24 -102 -46 -46 -21 -85 -38 -87 -38 -4 0 -253 -115 -410
-190 -135 -64 -614 -303 -710 -355 -38 -20 -117 -62 -175 -93 -58 -30 -109
-58 -115 -62 -5 -4 -46 -27 -90 -50 -44 -24 -93 -52 -110 -62 -16 -10 -37 -21
-45 -25 -23 -11 -312 -178 -425 -246 -55 -33 -113 -68 -130 -77 -146 -83 -792
-501 -1050 -680 -266 -184 -883 -640 -982 -725 -7 -5 -18 -15 -25 -20 -388
-308 -761 -622 -1034 -870 -6 -5 -49 -44 -95 -85 -45 -41 -97 -88 -115 -105
-17 -16 -92 -86 -165 -155 -147 -137 -642 -630 -784 -781 -81 -86 -243 -260
-304 -328 -13 -14 -40 -44 -60 -66 -21 -22 -77 -85 -125 -140 -49 -55 -105
-118 -125 -140 -20 -23 -56 -65 -81 -95 -25 -30 -49 -60 -55 -66 -18 -20 -102
-118 -140 -164 -20 -25 -44 -54 -54 -65 -201 -238 -685 -866 -863 -1120 -19
-27 -85 -121 -146 -208 -165 -233 -505 -748 -615 -932 -7 -11 -30 -49 -53 -85
-92 -147 -432 -731 -483 -830 -13 -25 -31 -58 -40 -75 -135 -246 -176 -324
-331 -634 -152 -305 -211 -426 -325 -676 -65 -142 -165 -372 -242 -555 -47
-113 -91 -218 -98 -235 -22 -49 -146 -368 -155 -396 -4 -15 -15 -42 -23 -60
-46 -100 -269 -746 -367 -1059 -28 -91 -57 -183 -65 -205 -12 -36 -77 -261
-150 -515 -30 -108 -203 -789 -211 -835 -3 -16 -9 -48 -15 -70 -5 -22 -11 -47
-13 -56 -5 -20 -43 -194 -50 -229 -3 -14 -7 -36 -10 -50 -3 -14 -9 -41 -12
-60 -3 -19 -10 -48 -14 -65 -5 -16 -11 -46 -14 -65 -3 -19 -10 -57 -16 -85 -6
-27 -13 -61 -15 -75 -2 -14 -7 -38 -10 -55 -34 -179 -82 -456 -91 -525 -3 -25
-7 -52 -9 -60 -5 -16 -11 -52 -20 -115 -3 -23 -7 -50 -9 -60 -3 -17 -18 -131
-21 -160 -1 -5 -4 -28 -8 -50 -4 -22 -9 -58 -12 -80 -3 -22 -7 -56 -10 -75 -2
-19 -7 -57 -10 -85 -3 -27 -8 -61 -10 -75 -2 -14 -7 -54 -11 -90 -3 -36 -7
-67 -9 -70 -1 -3 -6 -41 -9 -85 -4 -44 -9 -91 -11 -105 -4 -25 -9 -77 -20
-205 -4 -38 -8 -81 -10 -95 -2 -14 -7 -65 -10 -115 -4 -49 -8 -106 -10 -125
-2 -19 -6 -80 -10 -135 -3 -55 -8 -120 -10 -145 -4 -43 -15 -223 -20 -340 -27
-517 -26 -1641 0 -2045 2 -33 7 -114 11 -180 3 -66 7 -136 9 -155 1 -19 5 -84
9 -145 4 -60 9 -121 11 -135 2 -14 6 -65 10 -115 3 -49 8 -101 10 -115 2 -14
7 -61 10 -105 4 -44 8 -93 10 -110 2 -16 7 -57 10 -90 11 -116 32 -302 40
-355 2 -14 7 -50 10 -80 3 -30 8 -66 10 -80 3 -14 7 -47 10 -75 3 -27 8 -61
10 -75 2 -14 9 -56 14 -95 27 -186 30 -205 36 -235 3 -14 7 -45 10 -70 3 -25
8 -56 11 -70 2 -14 6 -36 9 -50 5 -35 44 -258 50 -295 12 -67 48 -255 62 -325
36 -184 94 -455 102 -488 6 -21 12 -48 15 -62 22 -121 156 -658 220 -885 8
-27 31 -108 51 -180 98 -355 246 -819 393 -1240 51 -143 223 -606 247 -660 7
-16 30 -73 50 -125 20 -52 43 -110 51 -128 22 -52 39 -90 89 -212 27 -63 58
-137 70 -165 13 -27 38 -86 58 -130 41 -96 70 -159 107 -240 16 -33 42 -91 60
-130 83 -182 346 -714 440 -890 23 -44 63 -118 88 -165 24 -47 55 -104 68
-127 41 -73 70 -126 102 -183 16 -30 63 -111 102 -180 40 -69 84 -145 97 -169
22 -38 135 -227 163 -271 11 -18 147 -239 175 -284 72 -118 121 -194 135 -211
9 -11 22 -32 30 -48 7 -15 17 -27 22 -27 4 0 8 -5 8 -10 0 -9 254 -395 270
-410 3 -3 25 -34 49 -70 159 -232 640 -885 671 -910 3 -3 17 -21 30 -40 13
-19 27 -37 30 -40 3 -3 41 -50 85 -105 43 -55 84 -105 90 -112 5 -7 15 -18 20
-25 25 -32 149 -184 154 -188 3 -3 28 -32 56 -65 97 -118 416 -487 436 -505 3
-3 50 -54 105 -115 54 -60 103 -115 109 -121 269 -293 955 -979 1149 -1147 11
-10 64 -58 116 -106 52 -48 120 -110 151 -137 30 -27 86 -77 125 -110 38 -34
87 -77 109 -95 22 -19 42 -36 45 -39 3 -4 55 -48 115 -98 61 -51 130 -110 155
-131 252 -213 944 -748 1166 -901 88 -60 250 -175 254 -179 3 -3 13 -10 22
-16 10 -5 98 -65 197 -133 99 -67 184 -122 189 -122 6 0 12 -4 14 -9 4 -12
649 -420 753 -477 11 -6 98 -57 193 -112 95 -56 176 -102 179 -102 3 0 17 -8
31 -18 15 -11 59 -36 97 -57 39 -21 133 -73 210 -115 275 -151 756 -396 990
-504 44 -21 91 -44 105 -51 22 -11 146 -68 375 -170 33 -14 74 -33 90 -41 40
-19 156 -68 405 -171 47 -19 94 -39 105 -43 115 -50 482 -191 720 -276 83 -30
159 -58 170 -63 11 -5 29 -12 40 -14 11 -3 135 -45 275 -92 140 -48 262 -88
270 -90 8 -2 51 -15 95 -29 44 -15 98 -32 120 -38 51 -15 47 -14 65 -21 8 -3
40 -13 70 -21 30 -8 143 -40 250 -71 199 -57 298 -84 475 -130 55 -14 116 -30
135 -35 35 -10 334 -82 400 -96 19 -4 40 -9 45 -10 168 -40 651 -141 785 -164
30 -5 66 -12 80 -15 14 -3 39 -7 55 -10 27 -4 170 -28 235 -40 14 -3 70 -12
125 -20 95 -14 116 -18 175 -30 14 -2 48 -7 75 -10 47 -5 65 -8 140 -20 17 -3
50 -7 75 -11 25 -3 95 -12 155 -20 157 -21 173 -23 238 -29 32 -4 66 -8 76
-10 9 -2 48 -6 86 -10 37 -3 82 -8 99 -10 17 -2 60 -6 96 -10 36 -3 85 -8 110
-10 112 -12 140 -14 215 -20 44 -4 96 -8 115 -10 19 -2 82 -7 140 -10 58 -4
121 -8 140 -10 19 -2 98 -6 175 -10 77 -3 158 -8 180 -10 235 -26 1589 -26
2030 0 33 2 112 6 175 10 63 4 135 8 160 10 25 2 88 6 140 10 52 3 115 8 140
10 25 2 79 6 120 10 41 3 91 8 110 10 19 2 71 7 114 10 43 4 86 8 95 10 9 1
51 6 94 10 43 3 86 8 95 10 9 1 49 6 87 10 71 6 90 9 180 20 95 12 110 14 185
25 41 5 95 12 120 15 133 16 523 79 865 139 17 3 313 60 370 72 115 23 424 89
485 104 25 6 56 13 70 16 50 10 276 64 310 73 49 14 312 82 330 86 49 10 512
142 720 205 181 54 669 216 875 289 177 63 566 208 620 232 11 4 92 37 180 72
206 83 327 133 392 163 28 13 54 24 57 24 2 0 33 13 68 29 35 16 128 58 208
94 80 35 181 81 225 102 44 20 109 51 145 67 153 71 768 382 925 468 33 18 89
49 125 68 202 109 730 415 875 507 28 17 93 58 145 90 52 32 153 96 223 142
70 46 132 83 136 83 5 0 11 3 13 8 2 4 77 56 168 117 271 180 570 391 830 584
198 147 644 493 660 511 3 3 39 33 80 65 41 33 77 62 80 65 3 3 46 39 95 80
158 130 509 435 565 490 14 14 46 43 70 64 295 258 862 817 1250 1232 75 80
332 365 401 444 141 163 207 240 249 290 25 30 70 84 100 120 143 169 494 612
629 795 25 33 47 62 50 65 10 8 302 416 420 585 179 257 619 936 709 1097 11
18 39 67 64 108 24 41 64 109 88 150 23 41 51 87 61 102 11 15 19 29 19 31 0
2 35 66 78 143 43 76 81 146 85 154 4 8 18 33 30 55 22 38 62 113 172 320 58
109 355 702 355 709 0 3 24 56 54 118 94 200 117 249 217 480 98 225 137 317
199 473 38 95 43 109 63 155 21 48 82 206 122 315 248 675 384 1088 534 1620
28 99 58 203 66 230 14 50 84 316 90 345 2 8 26 107 53 220 28 113 58 239 67
280 9 41 18 82 20 90 27 120 78 364 90 430 9 47 22 117 30 155 8 39 16 81 19
95 4 23 14 78 22 125 2 11 9 47 14 80 6 33 13 74 16 90 3 17 7 39 9 50 2 11 6
38 10 60 11 67 46 288 51 325 3 19 7 46 9 60 2 14 9 63 15 110 6 47 13 96 15
110 3 14 7 50 11 80 3 30 8 63 9 72 2 9 7 48 10 85 4 37 8 75 10 83 3 8 7 42
10 75 3 33 10 98 15 145 10 86 15 132 26 250 3 36 7 81 9 100 2 19 7 73 10
120 3 47 8 96 10 110 2 14 7 75 10 135 4 61 8 127 10 148 4 33 7 87 20 347 27
515 26 1643 0 2035 -2 28 -6 102 -9 167 -4 64 -8 140 -11 170 -2 29 -7 94 -10
143 -3 50 -7 113 -10 140 -2 28 -7 82 -10 120 -3 39 -7 86 -10 105 -2 19 -7
67 -10 105 -6 72 -7 80 -25 250 -16 147 -27 243 -35 300 -2 17 -7 56 -10 88
-4 32 -8 66 -9 75 -7 33 -16 97 -21 142 -8 73 -15 123 -20 150 -2 14 -7 48
-11 75 -3 28 -7 52 -9 55 -2 3 -6 29 -10 59 -4 30 -9 63 -11 75 -2 11 -6 38
-9 61 -11 74 -65 378 -100 560 -19 99 -36 191 -39 205 -2 14 -13 66 -24 115
-11 50 -23 104 -25 120 -3 17 -8 37 -11 45 -3 8 -8 31 -11 50 -3 19 -14 73
-25 120 -11 47 -29 126 -41 175 -52 228 -205 813 -265 1010 -13 44 -48 161
-78 260 -78 260 -170 540 -306 930 -35 102 -188 510 -205 550 -8 17 -35 84
-61 150 -45 117 -162 400 -189 460 -7 17 -54 122 -103 235 -50 113 -116 259
-147 325 -31 66 -66 140 -77 165 -84 187 -426 853 -576 1120 -14 25 -39 70
-55 100 -17 30 -59 104 -94 164 -35 60 -63 110 -63 112 0 2 -15 27 -32 57 -42
67 -47 76 -104 172 -168 285 -555 885 -759 1175 -156 221 -419 585 -452 625
-5 6 -51 66 -103 135 -52 69 -97 127 -100 130 -3 3 -18 23 -35 45 -16 22 -32
42 -35 45 -3 3 -30 36 -60 75 -64 81 -81 103 -95 119 -6 6 -30 36 -55 66 -133
164 -316 382 -445 529 -55 64 -190 216 -195 221 -3 3 -27 30 -55 60 -456 504
-1002 1050 -1459 1461 -28 24 -57 51 -66 59 -9 8 -47 42 -84 75 -38 33 -74 65
-80 70 -16 15 -363 313 -416 357 -321 266 -731 585 -1060 824 -217 158 -470
334 -479 334 -5 0 -11 4 -13 9 -2 6 -387 264 -471 316 -9 6 -92 58 -184 116
-148 94 -401 249 -488 299 -320 185 -392 226 -555 315 -69 37 -129 71 -135 75
-46 33 -1079 550 -1100 550 -2 0 -41 17 -87 39 -113 53 -180 82 -268 121 -41
18 -100 43 -130 57 -368 166 -1099 446 -1620 620 -285 95 -905 285 -966 296
-10 2 -50 13 -89 25 -54 16 -402 108 -485 127 -8 2 -82 20 -165 40 -82 20
-161 38 -175 41 -14 3 -41 9 -60 14 -44 12 -393 87 -440 95 -19 3 -42 8 -50
10 -8 2 -31 7 -50 10 -19 3 -51 10 -70 15 -19 5 -53 11 -75 15 -22 3 -47 8
-55 10 -8 3 -32 7 -54 9 -21 3 -46 8 -55 10 -9 3 -32 7 -51 10 -19 3 -47 8
-62 11 -58 11 -85 15 -143 25 -33 5 -71 12 -85 15 -23 4 -54 9 -140 21 -19 3
-73 11 -120 19 -47 8 -105 17 -130 20 -25 3 -79 10 -120 16 -103 14 -119 17
-165 23 -22 4 -60 9 -85 11 -25 3 -97 12 -160 20 -63 8 -144 17 -180 20 -36 4
-76 8 -90 10 -14 2 -59 7 -100 10 -41 3 -88 8 -105 10 -58 8 -206 21 -330 30
-44 3 -105 8 -135 10 -138 11 -315 22 -505 31 -77 3 -169 8 -205 10 -80 5
-1337 13 -1342 9z"/>
</g>
</svg>
