<?xml version="1.0" standalone="no"?>
<!DOCTYPE svg PUBLIC "-//W3C//DTD SVG 20010904//EN"
 "http://www.w3.org/TR/2001/REC-SVG-20010904/DTD/svg10.dtd">
<svg version="1.0" xmlns="http://www.w3.org/2000/svg"
 width="512.000000pt" height="512.000000pt" viewBox="0 0 512.000000 512.000000"
 preserveAspectRatio="xMidYMid meet">
<metadata>
Created by potrace 1.14, written by Peter Selinger 2001-2017
</metadata>
<g transform="translate(0.000000,512.000000) scale(0.100000,-0.100000)"
fill="#000000" stroke="none">
<path d="M2389 5046 c-2 -2 -35 -6 -74 -10 -38 -3 -79 -7 -90 -10 -11 -2 -42
-7 -68 -10 -27 -4 -59 -10 -70 -12 -12 -3 -33 -7 -47 -10 -335 -67 -717 -248
-1018 -480 -115 -90 -331 -306 -422 -424 -218 -284 -372 -597 -456 -930 -16
-62 -43 -212 -55 -295 -22 -157 -18 -544 7 -670 2 -11 7 -40 10 -65 4 -25 19
-99 36 -165 57 -236 140 -441 271 -670 39 -69 155 -241 179 -267 7 -7 31 -36
52 -63 73 -93 301 -310 416 -397 281 -210 591 -358 920 -438 50 -12 154 -32
230 -45 172 -27 558 -27 715 0 17 3 53 10 80 15 28 5 62 12 76 14 87 14 322
88 454 143 384 159 755 448 1022 798 193 253 346 574 428 895 18 71 20 78 30
136 4 22 8 46 10 54 2 8 6 40 10 70 4 30 9 66 12 80 9 45 11 423 3 495 -16
134 -20 161 -41 265 -19 97 -48 209 -69 270 -89 257 -186 452 -329 660 -173
253 -460 525 -738 699 -110 68 -344 181 -468 224 -162 58 -354 105 -495 122
-30 4 -64 9 -75 12 -24 6 -440 14 -446 9z m446 -210 c17 -2 44 -7 60 -9 17 -3
46 -8 66 -11 116 -17 301 -70 449 -128 472 -186 891 -549 1142 -988 137 -240
225 -475 267 -715 6 -33 13 -70 16 -83 25 -133 27 -526 2 -677 -71 -433 -226
-785 -491 -1115 -60 -74 -217 -237 -286 -296 -281 -241 -635 -418 -995 -498
-60 -14 -135 -27 -165 -31 -30 -4 -82 -10 -115 -15 -61 -8 -433 -5 -492 4 -18
3 -63 10 -100 16 -77 12 -268 57 -298 70 -11 5 -51 19 -90 31 -152 48 -395
172 -545 277 -158 111 -384 319 -466 428 -16 21 -37 48 -47 59 -54 58 -188
278 -251 410 -159 331 -226 644 -221 1025 2 208 17 328 61 510 99 403 298 759
593 1060 375 382 841 610 1381 675 95 12 440 12 525 1z"/>
<path d="M2305 4624 c-528 -67 -1023 -340 -1354 -748 -71 -88 -139 -184 -180
-256 -18 -30 -36 -62 -41 -70 -11 -17 -80 -165 -105 -225 -39 -93 -97 -303
-119 -430 -21 -116 -28 -439 -13 -575 42 -376 211 -774 456 -1074 233 -284
540 -505 875 -631 94 -35 284 -89 351 -99 17 -2 66 -10 110 -17 124 -20 482
-17 591 5 12 2 38 7 59 10 164 26 375 98 556 187 562 281 964 800 1105 1430
35 154 52 481 33 639 -13 118 -16 139 -39 244 -65 296 -221 618 -420 861 -73
89 -196 215 -265 270 -27 22 -59 48 -70 58 -45 41 -233 159 -333 210 -59 30
-152 72 -207 92 -116 43 -335 102 -415 111 -30 3 -64 8 -75 11 -48 11 -407 9
-500 -3z"/>
</g>
</svg>
